<svg width="86" height="71" viewBox="0 0 86 71" fill="none" xmlns="http://www.w3.org/2000/svg">
    <g clip-path="url(#clip0_66_186)">
        <path
            d="M41.0067 41.9227C41.2903 41.7104 41.5008 41.5018 41.7523 41.374C42.4836 41.0017 43.2024 40.5483 43.9801 40.3289C45.5997 39.8756 46.8982 40.8901 46.8804 42.5919C46.8697 43.5273 46.7466 44.4951 46.4826 45.3909C45.375 49.147 44.196 52.8797 43.0437 56.6213C43.0152 56.7149 42.9777 56.8066 42.942 56.8966C42.7476 57.3787 42.4676 57.7744 41.8879 57.7564C41.351 57.7402 41.0924 57.3787 40.9621 56.866C40.8462 56.884 40.741 56.9002 40.634 56.9182C39.908 57.0333 39.4335 56.7203 39.2712 56.0025C39.2248 55.7975 39.2088 55.5816 39.207 55.3711C39.1731 53.1963 39.1517 51.0214 39.116 48.8484C39.0179 42.8365 38.9216 36.8247 38.8075 30.8128C38.7807 29.4421 38.6862 28.0713 38.6184 26.6304C38.2973 26.7294 38.0137 26.8157 37.7301 26.9038C33.419 28.2674 29.115 29.6507 24.9911 31.5342C23.0291 32.43 21.0706 33.3348 19.1085 34.2325C18.8588 34.3476 18.6038 34.4627 18.3398 34.5365C17.8778 34.6624 17.4729 34.5455 17.1608 34.1641C16.9003 33.8475 16.8219 33.4805 16.9895 33.11C17.1857 32.6729 17.5425 32.4516 18.0365 32.4516C18.2203 32.4516 18.4129 32.3814 18.5859 32.3059C21.5682 30.9891 24.5042 29.5572 27.5364 28.3771C30.7952 27.1071 34.1414 26.0656 37.4537 24.9395C38.49 24.5869 38.4918 24.6067 38.4454 23.5543C38.2759 19.7497 38.1083 15.9451 37.9442 12.1404C37.9335 11.8976 37.9406 11.6475 37.9816 11.4083C38.0797 10.8596 38.4275 10.5394 38.8806 10.5448C39.3336 10.5484 39.7029 10.8722 39.7421 11.4353C39.801 12.2628 39.7546 13.0974 39.8045 13.9267C39.9758 16.8139 40.1702 19.6993 40.3539 22.5865C40.3807 23.0057 40.3985 23.4248 40.4253 23.9321C41.26 23.6497 42.0395 23.396 42.8118 23.1226C44.6437 22.4714 46.4701 21.8004 48.3073 21.1654C48.6658 21.0413 48.7657 20.8704 48.7657 20.5016C48.7532 15.5151 48.7533 10.5268 48.7622 5.54035C48.7622 4.52758 48.8192 3.51301 48.8335 2.50024C48.8371 2.21062 48.7604 1.9174 48.7622 1.62778C48.7657 1.30578 48.7782 0.974788 48.8567 0.66538C48.9619 0.244443 49.258 -0.000205171 49.7093 0.00699035C50.1392 0.012387 50.4085 0.260632 50.5262 0.652788C50.5958 0.881246 50.6118 1.13489 50.6136 1.37594C50.6475 7.44176 50.6761 13.5094 50.7046 19.5752C50.7046 19.7695 50.7046 19.9656 50.7046 20.2354C51.4769 19.9368 52.1975 19.6598 52.9181 19.3809C55.9094 18.2206 58.9042 17.0676 61.89 15.8911C62.2593 15.7454 62.6053 15.5115 62.921 15.2633C63.5025 14.8046 64.0875 14.7848 64.4639 15.2633C64.8723 15.7832 64.7528 16.5117 64.166 16.938C62.2414 18.334 60.6254 20.0501 59.1735 21.9227C56.8636 24.9017 55.4438 28.3358 54.3005 31.8939C53.0876 35.6662 52.2885 39.541 51.8818 43.4769C51.4323 47.8464 51.1398 52.2321 50.7884 56.6123C50.5316 59.8377 50.2854 63.0631 50.0482 66.2885C49.9626 67.4452 49.9198 68.6055 49.8484 69.764C49.8359 69.9726 49.8021 70.1903 49.7236 70.3828C49.5452 70.8199 49.2081 71.052 48.7283 70.9998C48.2681 70.9512 48.0095 70.6526 47.9007 70.2191C47.865 70.0788 47.8578 69.9277 47.8578 69.7819C47.8775 65.2362 47.8614 60.6922 47.9292 56.1464C47.9934 51.8309 48.1379 47.5172 48.261 43.2017C48.3947 38.512 48.5642 33.8223 48.6837 29.1309C48.7336 27.1557 48.6926 25.1769 48.6926 23.1532C48.5856 23.1784 48.45 23.1946 48.3234 23.2395C45.8762 24.0994 43.4325 24.9647 40.9836 25.8155C40.6857 25.9199 40.5483 26.0332 40.559 26.3912C40.7089 31.4892 40.8409 36.589 40.9782 41.687C40.9782 41.7356 40.9907 41.7842 41.0085 41.9263L41.0067 41.9227ZM50.3318 40.0123C50.3443 40.0159 50.355 40.0195 50.3675 40.0231C50.4067 39.8504 50.446 39.6777 50.4852 39.5032C51.0453 37.0549 51.5001 34.5761 52.1886 32.1674C53.3284 28.1793 54.9176 24.3782 57.4005 21.0161C57.8286 20.4369 58.2888 19.8792 58.7864 19.2424C58.6402 19.2838 58.5777 19.2946 58.5225 19.3162C56.0431 20.2732 53.5674 21.2392 51.0845 22.1836C50.7599 22.3077 50.7028 22.4912 50.6975 22.806C50.6511 26.2544 50.6011 29.7029 50.5298 33.1496C50.4816 35.4359 50.3978 37.7223 50.33 40.0087L50.3318 40.0123ZM41.3278 55.1732C41.3724 55.166 41.4188 55.1588 41.4634 55.1535C41.5187 55.0239 41.5847 54.898 41.6257 54.7649C42.5461 51.7554 43.4843 48.753 44.3725 45.7345C44.6383 44.8315 44.8149 43.8943 44.9308 42.9606C45.0271 42.1799 44.7828 41.9911 44.0711 42.3418C43.313 42.7142 42.5799 43.1909 41.9396 43.7432C41.2672 44.3242 40.9193 45.1193 41.046 46.0673C41.0888 46.3893 41.062 46.7203 41.0656 47.0459C41.0906 49.5463 41.1084 52.045 41.1459 54.5454C41.1494 54.7559 41.2654 54.9664 41.3296 55.175L41.3278 55.1732Z"
            fill="white" />
        <path
            d="M5.60252 42.9447C5.34032 43.4178 5.14769 43.7686 4.9497 44.1175C4.27903 45.294 3.60659 46.4669 2.93414 47.6415C2.87706 47.7405 2.76648 47.843 2.77183 47.9384C2.81999 48.7335 2.23494 49.158 1.81221 49.6869C1.45547 50.133 0.984583 50.3129 0.540447 50.0934C0.098095 49.8758 -0.124865 49.3613 0.0713398 48.8378C0.247924 48.3665 0.485153 47.9168 0.7313 47.4778C2.30094 44.677 3.88484 41.8833 5.45091 39.0789C5.56507 38.8756 5.63463 38.6166 5.63285 38.3845C5.59182 33.6607 5.53831 28.935 5.47767 24.2111C5.4741 23.9575 5.33319 23.7021 5.34389 23.452C5.36351 22.9429 5.34032 22.3943 5.52404 21.9391C5.76127 21.3491 6.62457 21.3653 6.95455 21.9338C7.10973 22.2036 7.2007 22.5454 7.2114 22.8602C7.33804 26.5353 7.44506 30.2104 7.55565 33.8873C7.561 34.0726 7.55565 34.2597 7.55565 34.445C7.60024 34.454 7.64483 34.463 7.68943 34.4719C7.90347 33.988 8.12286 33.5077 8.33155 33.0221C9.95648 29.2228 11.3977 25.3588 12.3038 21.3131C12.484 20.5054 12.5571 19.6708 12.648 18.8451C12.7123 18.2568 12.9994 17.9007 13.4899 17.8899C13.9822 17.8791 14.4264 18.264 14.3961 18.8379C14.3425 19.8453 14.2498 20.8598 14.0661 21.8492C13.3472 25.706 12.0024 29.3649 10.472 32.9555C9.66039 34.8605 8.75785 36.7259 7.89633 38.6076C7.85709 38.6921 7.8232 38.7785 7.73402 38.9889C8.21739 38.5914 8.5884 38.2622 8.98259 37.9672C9.31971 37.7153 9.66752 37.4671 10.0403 37.2746C11.3656 36.591 12.6588 37.0839 13.0208 38.5428C13.2955 39.6545 13.4132 40.831 13.4239 41.9805C13.4614 46.2312 13.4454 50.482 13.4061 54.7327C13.3901 56.4902 13.6861 58.1398 14.6101 59.6545C14.9312 60.1797 14.8295 60.687 14.4228 60.9623C13.9983 61.2483 13.5113 61.1224 13.1225 60.6079C12.0523 59.1976 11.494 57.5966 11.4887 55.8283C11.4708 51.0702 11.4922 46.3122 11.4744 41.5541C11.4726 40.84 11.3727 40.1204 11.2675 39.4117C11.1926 38.9062 11.0231 38.8198 10.6271 39.1382C9.65504 39.9208 8.71861 40.7482 7.78753 41.5793C7.66624 41.6873 7.61273 41.9319 7.6163 42.11C7.69121 45.6556 7.75185 49.203 7.87136 52.7486C7.9766 55.8678 8.14961 58.9853 8.28874 62.1045C8.30301 62.4211 8.31906 62.6802 8.65796 62.8745C9.04145 63.0957 9.1235 63.5293 8.92016 63.9106C8.71682 64.2938 8.44927 64.6626 8.13891 64.963C7.64127 65.4451 6.88142 65.2742 6.61387 64.6284C6.48723 64.3208 6.43193 63.9664 6.41945 63.6318C6.16081 56.8374 5.91288 50.0413 5.66138 43.2469C5.66138 43.1983 5.64533 43.1515 5.60966 42.9429L5.60252 42.9447Z"
            fill="white" />
        <path
            d="M73.1629 28.3429C72.6135 28.8107 71.9571 28.942 71.8769 29.7443C71.8233 30.2785 71.0974 30.6383 70.5819 30.4944C70.0807 30.3559 69.7543 29.8 69.913 29.2514C70.0058 28.9312 70.1467 28.5696 70.3821 28.3573C71.0796 27.7331 71.7805 27.0783 72.5814 26.6124C73.7622 25.9253 74.9162 26.5836 75.0054 27.958C75.0768 29.0301 75.025 30.113 74.9912 31.1888C74.9269 33.2305 74.7878 35.2704 74.77 37.3122C74.7557 38.9779 74.8716 40.6437 74.9359 42.3077C74.9412 42.466 74.9858 42.6243 75.1089 42.7987C75.3657 41.9982 75.6351 41.2031 75.8741 40.3972C76.8159 37.2348 77.6471 34.04 77.9752 30.748C78.1643 28.8502 78.2321 26.9344 78.2464 25.0258C78.2589 23.378 78.1269 21.7285 78.0466 20.0807C78.0198 19.541 78.1839 19.0787 78.5371 18.6902C80.2048 16.8517 82.0028 15.1626 84.0237 13.7198C84.1165 13.6533 84.2128 13.5939 84.3127 13.5382C84.7532 13.2953 85.1974 13.2036 85.6272 13.5544C85.9768 13.8386 86.1124 14.3405 85.8859 14.8531C85.5559 15.5979 85.1974 16.3336 84.7782 17.0298C84.3947 17.6666 83.7811 17.5964 83.1319 16.8391C82.1294 17.8393 81.1252 18.8287 80.1424 19.8414C80.0336 19.9548 80.0265 20.2012 80.03 20.3847C80.0818 22.5901 80.2066 24.7956 80.1906 26.9992C80.1603 30.9783 79.4486 34.8639 78.3766 38.6793C77.8022 40.7192 77.1137 42.725 76.452 44.7379C76.3271 45.1193 76.1256 45.4917 75.8901 45.8155C75.2498 46.6933 74.1189 46.634 73.6962 45.6374C73.3716 44.8711 73.1807 44.0166 73.0862 43.1837C72.6973 39.8126 72.7705 36.4289 72.9399 33.047C73.0077 31.6925 73.088 30.3379 73.1593 28.9851C73.1682 28.8125 73.1593 28.6398 73.1593 28.3393L73.1629 28.3429Z"
            fill="white" />
        <path
            d="M61.2925 32.1136C59.0397 35.8859 57.3131 39.8938 56.0842 44.1625C56.3464 43.9647 56.6139 43.774 56.869 43.5671C57.7144 42.8799 58.551 42.182 59.4 41.5002C59.6265 41.3185 59.8763 41.1566 60.1367 41.0289C61.1766 40.5216 62.1879 41.135 62.0541 42.2845C61.9542 43.1444 61.6421 43.9916 61.3353 44.8101C59.8013 48.9026 58.2192 52.977 56.7031 57.0749C56.4248 57.8268 56.3713 58.6615 56.2162 59.4584C56.1912 59.5861 56.1912 59.7192 56.1716 59.847C56.1056 60.2913 55.8469 60.5665 55.4082 60.6079C54.9676 60.6493 54.6572 60.4172 54.5127 60.0035C54.2559 59.2713 54.2309 58.5086 54.4628 57.7837C55.0532 55.9344 55.6489 54.087 56.3285 52.2701C57.2988 49.6725 58.3441 47.1055 59.3554 44.5241C59.425 44.3478 59.4874 44.1661 59.6034 43.8459C58.9381 44.391 58.4101 44.8659 57.8393 45.2814C57.2507 45.7096 56.6425 46.1197 56.0039 46.4651C55.4652 46.7565 54.8713 46.7799 54.354 46.3662C53.8421 45.956 53.6923 45.3642 53.8528 44.7723C54.2238 43.4052 54.6108 42.0363 55.0924 40.7051C56.3232 37.307 57.8054 34.024 59.7336 30.9641C60.035 30.4856 60.3935 30.0215 60.8091 29.6474C61.6938 28.8505 62.7837 29.194 63.0298 30.3651C63.2296 31.3203 63.3081 32.3025 63.4115 33.2757C63.5132 34.2345 63.5792 35.1969 63.6541 36.1575C63.6666 36.3194 63.6648 36.4867 63.638 36.645C63.5631 37.0875 63.2849 37.3502 62.8479 37.3772C62.4091 37.4041 62.0613 37.1793 61.9864 36.7421C61.8472 35.9398 61.7741 35.125 61.6778 34.3155C61.5904 33.5887 61.5101 32.862 61.4263 32.1352L61.2889 32.1118L61.2925 32.1136Z"
            fill="white" />
        <path
            d="M24.4275 44.7618C24.6986 43.8641 24.9144 43.042 25.1998 42.2469C25.3461 41.8404 25.5708 41.4392 25.8455 41.1082C26.5911 40.207 27.7879 40.3941 28.1393 41.5112C28.3747 42.2613 28.4051 43.0798 28.5174 43.8677C28.5549 44.1393 28.5585 44.4146 28.5816 44.7456C28.7065 44.6736 28.7743 44.643 28.8331 44.5999C29.2041 44.33 29.5805 44.2904 29.9497 44.5873C30.2797 44.8535 30.3564 45.3068 30.1013 45.7439C29.7963 46.262 29.486 46.7891 29.0989 47.2442C28.43 48.0357 27.3527 47.8414 27.0209 46.8521C26.7908 46.1649 26.707 45.4273 26.5375 44.6106C26.4769 44.8607 26.418 45.046 26.3895 45.2349C25.9917 47.7821 25.5975 50.3293 25.2016 52.8783C25.1748 53.0564 25.1427 53.2345 25.091 53.4054C24.9233 53.954 24.4578 54.3084 23.9851 54.2598C23.4982 54.2095 23.1468 53.8461 23.0736 53.2615C22.9934 52.6301 22.922 51.9951 22.8881 51.36C22.7044 47.8684 22.5082 44.3786 22.3709 40.8852C22.312 39.4011 22.3869 37.9116 22.4083 36.4239C22.4101 36.2459 22.4315 36.0642 22.4743 35.8915C22.576 35.4795 22.8418 35.2439 23.2681 35.2313C23.7229 35.2205 23.9958 35.4741 24.1117 35.8951C24.1581 36.0642 24.1492 36.2513 24.1546 36.4311C24.2206 38.9298 24.283 41.4302 24.3508 43.9289C24.3579 44.1879 24.3989 44.4452 24.4292 44.7636L24.4275 44.7618Z"
            fill="white" />
        <path
            d="M32.6805 34.5529C32.9927 34.4 33.2781 34.2525 33.5706 34.1194C35.7271 33.1426 37.2432 34.0762 37.3787 36.4489C37.4822 38.2622 37.2539 40.0431 36.7848 41.7826C36.3192 43.5132 35.8002 45.2329 35.2223 46.9274C34.9904 47.6092 34.5819 48.246 34.1681 48.8414C33.7436 49.4531 33.1443 49.8668 32.3416 49.6959C31.5104 49.5196 31.1234 48.8756 31.0199 48.1165C30.8737 47.0354 30.7666 45.9398 30.772 44.8497C30.7898 41.7772 30.8772 38.7047 30.9307 35.6323C30.9343 35.4236 30.9129 35.2059 30.854 35.0098C30.6685 34.4018 30.8077 33.9683 31.2803 33.7776C31.7958 33.5707 32.3149 33.7848 32.5753 34.3137C32.6092 34.382 32.6377 34.4558 32.677 34.5493L32.6805 34.5529ZM32.8179 47.3196C32.9374 47.1919 32.9802 47.1613 32.9998 47.1217C33.1175 46.8897 33.2477 46.6612 33.3423 46.4201C34.2412 44.105 34.9351 41.7269 35.2883 39.266C35.4292 38.2892 35.406 37.2836 35.3864 36.2906C35.3757 35.7222 35.1634 35.6251 34.6212 35.8175C34.3786 35.9039 34.1449 36.019 33.9113 36.1323C33.1318 36.5155 33.2281 37.4419 32.759 38.0194C32.7412 40.5018 32.7162 42.9825 32.7109 45.4649C32.7109 46.046 32.7733 46.627 32.8143 47.3178L32.8179 47.3196Z"
            fill="white" />
        <path
            d="M17.5978 50.3131C18.5913 48.5682 20.0039 42.9862 19.8862 41.2971C19.6954 41.369 19.5259 41.4392 19.3511 41.4986C19.121 41.5741 18.8909 41.6677 18.6555 41.7036C18.2096 41.772 17.7743 41.5201 17.6209 41.1388C17.4604 40.743 17.5621 40.2286 17.9812 40.0289C18.75 39.6619 19.5491 39.3183 20.3714 39.1186C21.0617 38.9513 21.7502 39.5468 21.784 40.3437C21.8269 41.3636 21.8055 42.4034 21.6538 43.409C21.2489 46.0821 20.4641 48.6563 19.4207 51.1442C19.171 51.7396 18.8338 52.308 18.4735 52.8441C18.1596 53.31 17.6869 53.5834 17.093 53.4791C16.4758 53.3712 16.0977 52.9322 15.9889 52.3692C15.7945 51.3636 15.6072 50.3401 15.5929 49.3201C15.5626 47.2802 15.6571 45.2384 15.6839 43.1967C15.6874 42.9485 15.6304 42.6822 15.5394 42.4502C15.3485 41.9663 15.5037 41.0686 15.8783 40.7089C16.3403 40.2663 17.0841 40.4228 17.2981 41.0668C17.4479 41.5219 17.5068 42.0256 17.5121 42.5095C17.5353 44.8121 17.5246 47.1165 17.5318 49.419C17.5318 49.6871 17.571 49.9551 17.5995 50.3131H17.5978Z"
            fill="white" />
        <path
            d="M64.2695 42.1709C64.3872 39.2675 65.0168 36.4631 65.6037 33.6532C65.659 33.387 65.6768 33.101 65.6518 32.8311C65.6019 32.2699 65.7713 31.9137 66.2083 31.777C66.6257 31.6457 67.1055 31.8238 67.2999 32.2789C67.4444 32.6171 67.6406 32.6944 67.9742 32.743C69.5652 32.975 70.8156 34.4717 70.9422 36.213C71.0974 38.3501 70.4963 40.3235 69.6169 42.2141C69.1799 43.1531 68.5931 44.0238 68.0455 44.907C67.8778 45.1786 67.6299 45.4089 67.3873 45.623C66.2957 46.5836 64.9669 46.2058 64.6191 44.7829C64.4122 43.9356 64.3818 43.0452 64.2713 42.1745L64.2695 42.1709ZM66.2583 43.6892C66.3332 43.709 66.4063 43.7269 66.4812 43.7467C66.5847 43.61 66.7042 43.4823 66.788 43.333C67.1965 42.5918 67.6495 41.8705 67.9831 41.0952C68.6377 39.5769 69.1478 38.0119 68.9855 36.312C68.9284 35.7093 68.668 35.22 68.1722 34.8747C67.703 34.5491 67.2268 34.7343 67.1341 35.2974C66.9022 36.7131 66.64 38.127 66.4901 39.5517C66.3475 40.9243 66.3314 42.3094 66.2583 43.6892Z"
            fill="white" />
        <path
            d="M74.9376 17.1126C74.9376 18.728 73.7105 19.9854 72.1248 19.9962C70.5551 20.007 69.2745 18.7262 69.2673 17.1378C69.2602 15.526 70.5337 14.2344 72.1319 14.2344C73.7212 14.2344 74.9376 15.481 74.9376 17.1126ZM74.242 17.0892C74.2313 15.8929 73.2877 14.9485 72.1105 14.9521C70.9618 14.9557 69.9844 15.9469 69.9772 17.1126C69.9701 18.3088 70.9547 19.2874 72.1498 19.2694C73.3181 19.2533 74.2545 18.2783 74.2438 17.0874L74.242 17.0892Z"
            fill="white" />
        <path
            d="M66.1227 27.4381C66.1049 26.8606 66.4723 26.4703 67.0377 26.4649C67.6549 26.4595 68.1721 26.9866 68.1793 27.627C68.1864 28.2188 67.6495 28.8178 67.1073 28.8214C66.5115 28.8268 66.1477 28.3159 66.1209 27.4381H66.1227Z"
            fill="white" />
        <path
            d="M33.5296 54.9289C32.8874 54.9361 32.429 54.445 32.4326 53.7542C32.4362 53.2199 32.8696 52.7666 33.3762 52.7666C33.9273 52.7666 34.7068 53.4916 34.7014 54.0006C34.6961 54.5241 34.1931 54.9217 33.5278 54.9289H33.5296Z"
            fill="white" />
        <path
            d="M72.0713 18.6256C71.3293 18.5662 70.7549 17.996 70.7264 17.2531C70.6961 16.4975 71.3007 15.7564 72.0053 15.715C72.2407 15.7024 72.5136 15.7096 72.7098 15.8176C72.8632 15.9003 72.9239 16.154 73.0255 16.332C72.8454 16.3914 72.6403 16.5371 72.4904 16.4921C72.0374 16.3572 71.7235 16.4724 71.5183 16.8843C71.3631 17.1991 71.4149 17.4995 71.6985 17.7172C71.9803 17.933 72.2514 17.8377 72.4886 17.6218C72.6991 17.433 72.9096 17.0768 73.1932 17.424C73.4501 17.7388 73.1664 18.0212 72.9167 18.1975C72.6599 18.3792 72.3531 18.4853 72.0677 18.6238L72.0713 18.6256Z"
            fill="white" />
    </g>
    <defs>
        <clipPath id="clip0_66_186">
            <rect width="86" height="71" fill="white" />
        </clipPath>
    </defs>
</svg>
    