<svg width="24" height="24" viewBox="0 0 24 24" fill="none" xmlns="http://www.w3.org/2000/svg">
<path d="M8.6867 0C7.09943 0 5.80075 1.29868 5.80075 2.88595V5.77189H0.288595C0.115438 5.77189 0.0288595 5.88733 0.0288595 6.03163V12.9868C0.0288595 13.7948 0.663768 14.4297 1.47183 14.4297H21.6735C22.4815 14.4297 23.1164 13.7948 23.1164 12.9868V6.03163C23.1164 5.85847 23.001 5.77189 22.8567 5.77189H17.3445V2.88595C17.3445 1.29868 16.0459 0 14.4586 0L8.6867 0ZM8.6867 2.88595H14.4586V5.77189H8.6867V2.88595ZM0.0288595 17.0559V22.8278C0.0288595 22.9721 0.144297 23.0876 0.288595 23.0876H22.8278C22.9721 23.0876 23.0876 22.9721 23.0876 22.8278V17.0559C22.6258 17.2291 22.1641 17.3157 21.6446 17.3157H1.44297C0.923503 17.3157 0.461751 17.2002 0 17.0559H0.0288595Z" fill="#CDF70E"/>
</svg>
