<svg width="26" height="20" viewBox="0 0 26 20" fill="none" xmlns="http://www.w3.org/2000/svg">
    <path
        d="M1.37429 0.00654047C0.946857 0.0749304 0.564095 0.310318 0.31021 0.660921C0.0563256 1.01152 -0.0478842 1.44862 0.0205057 1.87606C0.0888956 2.3035 0.324283 2.68626 0.674886 2.94014C1.02549 3.19403 1.46259 3.29824 1.89002 3.22985H6.72498L7.01508 4.03567L8.33664 8.06481L9.65819 12.0939C9.78712 12.513 10.3351 12.8998 10.7541 12.8998H22.0357C22.487 12.8998 23.0027 12.513 23.1316 12.0939L25.7425 4.03567C25.8714 3.61664 25.678 3.22985 25.2268 3.22985H10.9153L9.69042 0.909066C9.55997 0.64269 9.35853 0.417482 9.10829 0.258241C8.85806 0.0989995 8.56873 0.0119025 8.27217 0.00654047L1.82556 0.00654047C1.72905 -0.00218016 1.63196 -0.00218016 1.53546 0.00654047C1.47105 0.00266901 1.40647 0.00266901 1.34206 0.00654047L1.37429 0.00654047ZM11.5599 16.1231C10.6574 16.1231 9.94829 16.8322 9.94829 17.7347C9.94829 18.6373 10.6574 19.3464 11.5599 19.3464C12.4625 19.3464 13.1716 18.6373 13.1716 17.7347C13.1716 16.8322 12.4625 16.1231 11.5599 16.1231ZM21.2299 16.1231C20.3273 16.1231 19.6182 16.8322 19.6182 17.7347C19.6182 18.6373 20.3273 19.3464 21.2299 19.3464C22.1324 19.3464 22.8415 18.6373 22.8415 17.7347C22.8415 16.8322 22.1324 16.1231 21.2299 16.1231Z"
        fill="#CDF70E" />
</svg>