<svg class="skill-svg-color" width="68" height="66" viewBox="0 0 68 66" fill="none" xmlns="http://www.w3.org/2000/svg">
    <g clip-path="url(#clip0_66_142)">
        <path
            d="M0.299802 53.9429C-0.295399 54.9731 0.0166563 56.2892 1.037 56.9194L15.0948 65.6763C16.1151 66.3056 17.4475 65.9914 18.0708 64.9612V64.9329C26.9988 49.8803 28.7564 52.055 55.3984 64.847C56.4757 65.3621 57.7511 64.9045 58.2894 63.8168C58.2894 63.8168 58.2894 63.7884 58.3174 63.7592L65.0066 48.4492C65.4888 47.3614 65.0066 46.0736 63.9293 45.5877C60.9814 44.1857 55.1433 41.4093 49.8715 38.8337C16.9374 22.6642 5.9117 44.9859 0.299802 53.9429ZM67.6995 12.0752C68.2947 11.0449 67.9827 9.72882 66.9623 9.09866L52.9326 0.370889C51.9403 -0.2876 50.5798 -0.0583738 49.9285 0.971857C49.9004 1.00019 49.8715 1.05771 49.8435 1.11523C40.8874 16.2253 39.0729 13.9356 12.5728 1.22941C11.4675 0.685968 10.192 1.14356 9.68187 2.23131C9.68187 2.23131 9.68187 2.25964 9.65381 2.28883L2.93569 17.5989C2.45358 18.6867 2.93569 19.9745 4.01301 20.4604C6.96095 21.8624 12.8279 24.6388 18.0997 27.2144C51.0339 43.3263 62.0596 21.1189 67.6995 12.076V12.0752Z"
            fill="#818181" />
    </g>
    <defs>
        <clipPath id="clip0_66_142">
            <rect width="68" height="66" fill="white" />
        </clipPath>
    </defs>
</svg>