<svg width="60" height="66" viewBox="0 0 60 66" fill="none" xmlns="http://www.w3.org/2000/svg">
<g clip-path="url(#clip0_66_139)">
<path d="M60 0L54.3738 59.5829L29.9992 66L5.62447 59.5829L0 0H60ZM48.6631 12.115H10.9607L11.8703 19.3099H30.995L29.978 19.724L12.5323 26.8289L13.1105 33.8618L29.978 33.9155L39.0179 33.9436L38.4388 43.3216L29.9772 45.651V45.6436L29.9079 45.6626L21.7362 43.6457L21.2399 37.8246H13.6059L14.5984 49.0625L29.9772 53.5097V53.5015L30.0051 53.5097L45.3018 49.1435L47.286 26.8297H29.9349L29.9772 26.8115L47.9192 19.3107L48.6623 12.1158L48.6631 12.115Z" fill="#818181"/>
</g>
<defs>
<clipPath id="clip0_66_139">
<rect width="60" height="66" fill="white"/>
</clipPath>
</defs>
</svg>
