<svg width="46" height="66" viewBox="0 0 46 66" fill="none" xmlns="http://www.w3.org/2000/svg">
<g clip-path="url(#clip0_66_146)">
<path d="M40.6431 22.7671C43.8816 20.4943 46 16.7553 46 12.5347C46 5.62317 40.3193 0 33.3371 0H12.6629C5.68069 0 0 5.62317 0 12.5347C0 16.7544 2.11747 20.4943 5.35693 22.7671C2.11747 25.04 0 28.7789 0 32.9995C0 37.2201 2.1184 40.96 5.35786 43.2329C2.1184 45.5048 0 49.2447 0 53.4653C0 60.3768 5.68069 66 12.6629 66C19.6452 66 25.3259 60.3768 25.3259 53.4653V42.6997C27.5103 44.4706 30.2995 45.5343 33.3361 45.5343C40.3184 45.5343 45.9991 39.9111 45.9991 32.9995C45.9991 28.7799 43.8816 25.04 40.6421 22.7671H40.6431ZM33.3371 4.60463C37.7543 4.60463 41.3483 8.16217 41.3483 12.5347C41.3483 16.9073 37.7627 20.4565 33.352 20.4648C33.3464 20.4648 33.3417 20.4648 33.3361 20.4648C33.3203 20.4648 33.3054 20.4648 33.2896 20.4648H25.3259V4.60463H33.3361H33.3371ZM4.65173 12.5347C4.65173 8.16217 8.24565 4.60463 12.6629 4.60463H20.6741V20.4648H12.6629C12.6573 20.4648 12.6527 20.4648 12.6471 20.4648C8.23728 20.4565 4.65173 16.9027 4.65173 12.5347ZM12.6471 25.0694C12.6527 25.0694 12.6573 25.0694 12.6629 25.0694H20.6741V32.9461C20.6741 32.9636 20.6741 32.9811 20.6741 32.9995C20.6741 33.018 20.6741 33.0345 20.6741 33.053V40.9306H12.6629C8.24565 40.9306 4.65173 37.373 4.65173 33.0005C4.65173 28.6279 8.23728 25.0787 12.6471 25.0704V25.0694ZM20.6741 53.4653C20.6741 57.8378 17.0802 61.3954 12.6629 61.3954C8.24565 61.3954 4.65173 57.8378 4.65173 53.4653C4.65173 49.0927 8.24565 45.5352 12.6629 45.5352H20.6741V53.4653ZM33.3361 40.9296C28.9272 40.9296 25.3389 37.385 25.3259 33.0244V32.9747C25.3398 28.6215 28.9151 25.0823 33.3129 25.0704H33.3361C33.3417 25.0704 33.3464 25.0704 33.352 25.0704C37.7627 25.0787 41.3483 28.6325 41.3483 33.0005C41.3483 37.3684 37.7543 40.9306 33.3371 40.9306L33.3361 40.9296Z" fill="#818181"/>
</g>
<defs>
<clipPath id="clip0_66_146">
<rect width="46" height="66" fill="white"/>
</clipPath>
</defs>
</svg>
