<svg width="69" height="69" viewBox="0 0 69 69" fill="none" xmlns="http://www.w3.org/2000/svg">
<g clip-path="url(#clip0_66_159)">
<path fill-rule="evenodd" clip-rule="evenodd" d="M39.0354 8.29234C36.5309 5.78792 32.4688 5.78792 29.9644 8.29234L27.8102 10.4465L32.8383 15.4746C33.3684 15.3332 33.9245 15.2572 34.4999 15.2572C38.0424 15.2572 40.9144 18.1291 40.9144 21.6717C40.9144 22.2461 40.8384 22.8032 40.6969 23.3333L47.2702 29.9065C47.8003 29.7651 48.3565 29.6891 48.9318 29.6891C52.4744 29.6891 55.3463 32.5611 55.3463 36.1036C55.3463 39.6462 52.4744 42.5181 48.9318 42.5181C45.3892 42.5181 42.5173 39.6462 42.5173 36.1036C42.5173 35.5292 42.5933 34.9722 42.7347 34.442L37.7067 29.4139V44.9793C39.6242 46.0886 40.9134 48.161 40.9134 50.5355C40.9134 54.0781 38.0415 56.9501 34.4989 56.9501C30.9564 56.9501 28.0844 54.0781 28.0844 50.5355C28.0844 48.161 29.3746 46.0886 31.2912 44.9793V27.227C29.3737 26.1177 28.0844 24.0453 28.0844 21.6707C28.0844 21.0963 28.1604 20.5393 28.3018 20.0091L23.2738 14.9811L8.29246 29.9643C5.78804 32.4687 5.78804 36.5308 8.29246 39.0352L29.9644 60.7072C32.4688 63.2116 36.5309 63.2116 39.0354 60.7072L60.7073 39.0352C63.2117 36.5308 63.2117 32.4687 60.7073 29.9643L39.0354 8.29234ZM25.4289 3.75686C30.4387 -1.25294 38.561 -1.25294 43.5708 3.75686L65.2428 25.4278C70.2526 30.4376 70.2526 38.5599 65.2428 43.5697L43.5708 65.2417C38.561 70.2515 30.4387 70.2515 25.4289 65.2417L3.75699 43.5707C-1.25282 38.5609 -1.25282 30.4386 3.75699 25.4288L25.4289 3.75686Z" fill="#818181"/>
</g>
<defs>
<clipPath id="clip0_66_159">
<rect width="69" height="69" fill="white"/>
</clipPath>
</defs>
</svg>
