<svg width="60" height="66" viewBox="0 0 60 66" fill="none" xmlns="http://www.w3.org/2000/svg">
<g clip-path="url(#clip0_66_124)">
<path fill-rule="evenodd" clip-rule="evenodd" d="M48.1167 19.8H19.3733L20.06 26.4H47.4333C47.0325 32.1816 45.8183 44.4304 45.3733 50.0041L29.9983 54.2883V54.3015L29.9642 54.318L14.5792 48.9588L13.525 36.3H21.0658L21.6 43.1079L29.9775 46.2H29.9975L38.3617 43.23L39.2217 33H13.1883C13.0625 31.6767 11.4442 14.4936 11.1617 13.2H48.79C48.5792 15.3788 48.365 17.6154 48.1167 19.8ZM0 0L5.46083 59.8884L29.965 66L54.5333 59.7655L60 0H0Z" fill="#818181"/>
</g>
<defs>
<clipPath id="clip0_66_124">
<rect width="60" height="66" fill="white"/>
</clipPath>
</defs>
</svg>
