<svg width="66" height="66" viewBox="0 0 66 66" fill="none" xmlns="http://www.w3.org/2000/svg">
<g clip-path="url(#clip0_66_144)">
<path fill-rule="evenodd" clip-rule="evenodd" d="M30.3382 0.641912C32.5265 -0.482393 35.2813 -0.132877 37.1193 1.70596L64.2933 28.8804C66.5686 31.1557 66.5686 34.8446 64.2933 37.119L37.1193 64.2934C36.6828 64.7299 36.1895 65.0854 35.6609 65.3575C33.4726 66.4818 30.7179 66.1323 28.8799 64.2934L1.70581 37.119C-0.569458 34.8437 -0.569458 31.1557 1.70581 28.8804L28.8799 1.70596C29.3164 1.26949 29.8096 0.913949 30.3382 0.641912ZM33.2454 5.94836C30.482 10.5265 31.0777 16.5673 35.0291 20.5187L45.4808 30.9706C46.0189 31.5087 46.321 32.2387 46.321 32.9997C46.321 33.7607 46.0189 34.4907 45.4808 35.0288L36.8946 43.6152C38.9383 46.4569 40.0333 49.7687 40.1814 53.1149L60.2361 33.0608C60.2481 33.0488 60.2524 33.0402 60.255 33.0333C60.2585 33.0247 60.261 33.0135 60.261 32.9997C60.261 32.9859 60.2585 32.9739 60.255 32.9653C60.2524 32.9592 60.2481 32.9506 60.2361 32.9377L33.2454 5.94836ZM32.7538 60.051C35.5172 55.4729 34.9215 49.4321 30.9701 45.4807L20.5183 35.0288C19.3975 33.9079 19.3975 32.0915 20.5183 30.9706L29.1046 22.3842C27.0609 19.5425 25.9659 16.2307 25.8178 12.8844L5.76393 32.9386C5.75188 32.9506 5.74758 32.9592 5.74499 32.9661C5.74155 32.9747 5.73897 32.9859 5.73897 33.0006C5.73897 33.0152 5.74155 33.0264 5.74499 33.0341C5.74758 33.041 5.75188 33.0496 5.76393 33.0617L32.7538 60.0519V60.051ZM32.9991 26.606L26.6055 32.9997L32.9991 39.3934L39.3928 32.9997L32.9991 26.606Z" fill="#818181"/>
</g>
<defs>
<clipPath id="clip0_66_144">
<rect width="66" height="66" fill="white"/>
</clipPath>
</defs>
</svg>
