<svg width="66" height="66" viewBox="0 0 66 66" fill="none" xmlns="http://www.w3.org/2000/svg">
<g clip-path="url(#clip0_66_118)">
<path d="M0 0V66H66V0H0ZM34.4467 56.4594C33.4741 58.4358 31.6166 59.734 29.4655 60.3608C26.1587 61.12 22.9979 60.6881 20.6436 59.2752C19.0686 58.3093 17.8387 56.8221 17.0053 55.1097C18.6798 54.0864 20.35 53.0581 22.0245 52.0349C22.0683 52.0543 22.1999 52.2922 22.3762 52.6001C23.0156 53.6739 23.5673 54.4323 24.6538 54.9646C25.7209 55.3273 28.0593 55.561 28.9644 53.684C29.5169 52.7308 29.3398 49.6012 29.3398 46.2076C29.3398 40.8746 29.3651 35.6294 29.3651 30.2306H35.5383C35.5383 35.8993 35.5695 41.5824 35.5383 47.2426C35.5509 50.7122 35.8529 53.8646 34.4459 56.456V56.4585L34.4467 56.4594ZM60.0571 54.7157C57.912 62.0572 45.9469 62.2951 41.1673 57.4446C40.1567 56.3033 39.5249 55.7069 38.9209 54.3893C40.6148 53.4147 42.2859 52.4508 43.9342 51.4975C45.2771 53.5626 46.5197 54.6972 48.7526 55.1603C51.7835 55.5289 54.8321 54.4896 54.1497 51.2715C53.447 48.6421 47.9453 48.0027 44.1999 45.1919C40.398 42.6376 39.5072 36.4341 42.6309 32.8886C43.6727 31.5769 45.4484 30.5984 47.3101 30.1277C47.9554 30.0459 48.6092 29.959 49.2545 29.8763C52.9873 29.8004 55.3222 30.7848 57.0338 32.6997C57.5104 33.1831 57.8985 33.7035 58.6281 34.8339C56.639 36.1009 56.6458 36.0883 53.7962 37.934C53.1872 36.6222 52.1783 35.7998 51.1112 35.4438C49.4561 34.9419 47.3658 35.4877 46.9339 37.238C46.7846 37.7779 46.8158 38.2798 47.0537 39.1698C47.7243 40.7008 49.9766 41.3656 51.9969 42.2926C57.8133 44.6521 59.7762 47.1785 60.2596 50.19C60.7235 52.7823 60.1457 54.4627 60.0597 54.714H60.0554L60.0571 54.7157Z" fill="#818181"/>
</g>
<defs>
<clipPath id="clip0_66_118">
<rect width="66" height="66" fill="white"/>
</clipPath>
</defs>
</svg>
