<svg width="24" height="24" viewBox="0 0 24 24" fill="none" xmlns="http://www.w3.org/2000/svg">
<path d="M23.1164 0C8.66866 0 5.77911 2.88955 5.77911 2.88955V14.7078C5.34567 14.5634 4.82555 14.4478 4.33433 14.4478C1.936 14.4478 0 16.3838 0 18.7821C0 21.1804 1.936 23.1164 4.33433 23.1164C6.73266 23.1164 8.66866 21.1804 8.66866 18.7821V7.31057C10.778 6.64597 14.4189 6.03917 20.2269 5.86579V11.8183C19.7934 11.6738 19.2733 11.5582 18.7821 11.5582C16.3838 11.5582 14.4478 13.4942 14.4478 15.8925C14.4478 18.2909 16.3838 20.2269 18.7821 20.2269C21.1804 20.2269 23.1164 18.2909 23.1164 15.8925V0Z" fill="#CDF70E"/>
</svg>
