<svg width="74" height="74" viewBox="0 0 74 74" fill="none" xmlns="http://www.w3.org/2000/svg">
<path d="M65.2125 18.192L39.6205 3.70007C37.9602 2.92029 36.0389 2.92029 34.3786 3.70007L8.78752 18.192C7.18634 19.1161 6.19104 20.8144 6.16699 22.6626V51.3376C6.19104 53.1857 7.18727 54.884 8.78752 55.8081L15.5705 59.6626C17.3428 60.7097 19.3714 61.2434 21.4286 61.2045C26.208 61.2045 28.983 58.2751 28.983 53.342V25.1295C28.983 24.704 28.638 24.359 28.2125 24.359H24.975C24.5495 24.359 24.2045 24.704 24.2045 25.1295V53.342C24.2045 55.6545 21.892 57.8126 18.192 55.9626L11.1 51.9545C10.9058 51.8093 10.792 51.5808 10.792 51.3376V22.6626C10.8022 22.3777 10.9113 22.1057 11.1 21.892L36.5375 7.55454H37.4625L62.9 21.892C63.0887 22.1057 63.1979 22.3777 63.208 22.6626V51.3376C63.208 51.5799 63.0943 51.8084 62.9 51.9545L37.4625 66.292C37.1767 66.4576 36.8233 66.4576 36.5375 66.292L30.0625 62.592C29.8868 62.4348 29.6213 62.4348 29.4455 62.592L25.5911 64.2876C25.1286 64.442 24.5116 64.5956 25.7455 65.367L34.3786 70.1465C35.9696 71.1899 38.0286 71.1899 39.6205 70.1465L65.2125 55.809C66.8137 54.8849 67.809 53.1866 67.833 51.3385V22.6626C67.809 20.8144 66.8128 19.1161 65.2125 18.192Z" fill="#818181"/>
<path d="M44.8625 46.7128C38.0794 46.7128 36.6919 45.1709 36.075 41.9334C36.075 41.593 35.7993 41.3164 35.458 41.3164H32.066C31.7256 41.3164 31.449 41.592 31.449 41.9334C31.449 46.0959 33.7615 51.1834 44.8615 51.1834C52.8785 51.1834 57.5035 48.1003 57.5035 42.7039C57.5035 37.3074 53.8035 35.7664 45.941 34.8414C38.0785 33.9164 37.308 33.2994 37.308 31.4494C37.308 29.5994 37.925 28.0574 43.783 28.0574C49.641 28.0574 51.0285 29.1369 51.8 32.528C51.874 32.8924 52.1986 33.1523 52.5705 33.1449H55.808L56.425 32.8369C56.5378 32.7102 56.5933 32.5428 56.5794 32.3744C56.1169 26.3619 51.9544 23.5869 43.7839 23.5869C35.6134 23.5869 32.2214 26.6699 32.2214 31.6039C32.2214 36.5378 36.5384 38.5414 43.4759 39.3119C50.4134 40.0824 52.5714 41.1619 52.5714 42.8574C52.5714 44.553 50.2589 46.7119 44.8634 46.7119L44.8625 46.7128Z" fill="#818181"/>
</svg>
