<svg width="75" height="66" viewBox="0 0 75 66" fill="none" xmlns="http://www.w3.org/2000/svg">
<g clip-path="url(#clip0_66_116)">
<path d="M31.6416 36.3263C33.4911 39.4946 37.5872 40.5807 40.79 38.7512C43.9929 36.9217 45.0909 32.8698 43.2414 29.7015C41.3919 26.5332 37.2958 25.447 34.093 27.2766C30.8901 29.1061 29.7932 33.158 31.6416 36.3263ZM38.9079 6.63314C38.4051 7.06826 37.9011 7.52676 37.3959 8.00974C37.0371 7.67254 36.6793 7.34648 36.3216 7.03043C29.5558 1.07332 22.7699 -1.44061 18.6907 0.888587C14.779 3.12209 13.6136 9.76694 15.2493 18.0855C15.4113 18.9046 15.5947 19.7192 15.7972 20.5305C15.256 20.6851 14.7194 20.851 14.1851 21.0257C5.58897 23.8479 -0.0033751 28.4061 8.71884e-08 33.0656C0.00225027 37.5337 5.2391 41.8516 13.3402 44.6059C14.1389 44.8775 14.9456 45.1279 15.7578 45.3582C15.6239 45.9002 15.499 46.4444 15.3854 46.9908C13.5641 55.7678 14.7633 62.8367 18.8448 65.1614C22.7586 67.3905 29.1565 65.0591 35.6151 59.4914C36.2541 58.9395 36.8784 58.3719 37.4893 57.7877C38.2059 58.4754 38.9214 59.1264 39.6336 59.7341C46.001 65.167 52.2942 67.3649 56.1912 65.1392C60.2164 62.84 61.5327 55.8713 59.8452 47.3881C59.708 46.7003 59.5527 46.017 59.3806 45.3371C60.2592 45.0878 61.1311 44.8151 61.9939 44.5169C69.933 41.7748 75.0011 37.4803 75 33.0289C74.9977 28.4317 69.5517 23.8223 61.2796 21.0301C60.6259 20.8098 59.9465 20.6006 59.2478 20.4025C59.4683 19.5244 59.6652 18.6408 59.8362 17.7505C61.3999 9.57664 60.1703 3.0887 56.27 0.866331C52.2414 -1.42837 45.4846 0.937559 38.9091 6.63203L38.9079 6.63314ZM20.4445 62.4149C17.9324 60.9838 16.9514 55.207 18.5242 47.6284C18.6243 47.1443 18.7368 46.6513 18.8617 46.1506C22.1703 46.8906 25.525 47.4125 28.9034 47.713C30.8485 50.4473 32.9691 53.0547 35.2539 55.5174C34.687 56.0605 34.1053 56.588 33.5102 57.1022C27.9764 61.873 22.8025 63.7581 20.4434 62.4149L20.4445 62.4149ZM41.9252 47.9968C40.475 49.8909 38.9901 51.6514 37.4961 53.2483C36.0111 51.6514 34.5317 49.8909 33.085 48.0001C34.5576 48.068 36.0313 48.1014 37.5073 48.1014C38.9799 48.1014 40.4525 48.0658 41.924 47.9968L41.9252 47.9968ZM56.702 47.999C57.4242 51.214 57.5435 54.5337 57.0507 57.791C56.909 59.5961 56.018 61.262 54.5892 62.3949C52.2245 63.7459 47.1721 61.9798 41.726 57.3336C41.0432 56.7494 40.3794 56.1462 39.7326 55.5241C42.0298 53.0603 44.1594 50.4495 46.1079 47.7074C49.529 47.4025 52.9265 46.8739 56.2778 46.1261C56.4342 46.7471 56.576 47.3714 56.702 47.999ZM26.5544 21.6578C25.7624 22.9019 24.9951 24.1617 24.2526 25.4359C23.5225 26.6901 22.8205 27.9599 22.1444 29.2452C21.2095 27.0451 20.4108 24.8828 19.7605 22.7951C22.0038 22.3032 24.2718 21.9237 26.5532 21.6567L26.5544 21.6578ZM14.3819 41.609C7.44071 39.2486 3.20511 35.7565 3.20398 33.0645C3.20286 30.1967 7.77259 26.4709 15.1953 24.0348C15.679 23.8768 16.1662 23.7266 16.6555 23.5863C17.659 26.7869 18.8763 29.9185 20.2971 32.961C18.8583 35.9902 17.6287 39.1118 16.615 42.3057C15.8658 42.092 15.121 41.8605 14.3831 41.6112L14.3819 41.609ZM19.7212 43.0947C20.4141 40.9168 21.2174 38.7757 22.1286 36.678C23.4843 39.2765 24.9614 41.8082 26.5589 44.2732C24.166 43.9749 21.8744 43.5788 19.7212 43.0947ZM48.449 44.2676C49.2444 43.039 50.0105 41.7915 50.7462 40.5273C51.4977 39.2375 52.2166 37.9299 52.9051 36.6045C53.8479 38.7178 54.6804 40.8779 55.3981 43.0757C53.2156 43.5654 50.8824 43.966 48.449 44.2676ZM60.2446 24.0293C63.4216 25.0164 66.387 26.5732 68.9937 28.622C70.5034 29.6458 71.517 31.2417 71.7949 33.03C71.796 35.7309 67.7258 39.1796 60.9364 41.5244C60.1332 41.8004 59.3232 42.0553 58.5065 42.2867C57.4602 39.0784 56.1946 35.9435 54.7197 32.9043C56.1507 29.8372 57.377 26.6812 58.3895 23.455C59.0116 23.6309 59.6303 23.8223 60.2434 24.0281L60.2446 24.0293ZM55.2788 22.6861C54.6185 24.7971 53.8074 26.9917 52.8579 29.223C52.1885 27.9654 51.482 26.6979 50.7372 25.4214C49.9723 24.1116 49.1893 22.8352 48.386 21.5932C50.7012 21.8403 53.0007 22.2053 55.2777 22.6861L55.2788 22.6861ZM37.4938 21.0301C39.7708 21.0279 42.0467 21.098 44.3203 21.2416C45.5701 23.0689 46.7919 24.9986 47.963 27.0061C49.1296 29.0048 50.2017 30.9857 51.1726 32.9288C50.1815 34.9731 49.115 36.9784 47.9698 38.9448C46.8324 40.9001 45.6208 42.8098 44.336 44.6749C42.0635 44.8452 39.7854 44.9309 37.5051 44.9331C35.2258 44.9342 32.9488 44.8508 30.6741 44.6816C29.413 42.8543 28.1924 40.9391 27.037 38.9582C25.876 36.9684 24.8084 34.963 23.8398 32.9688C24.832 30.949 25.8951 28.9659 27.0291 27.0195C28.1642 25.0664 29.3624 23.1512 30.6246 21.2738C32.9106 21.1125 35.1999 21.0324 37.4938 21.0324L37.4938 21.0301ZM18.3959 17.4812C16.9942 10.3545 17.9369 4.98056 20.2938 3.63401C22.8048 2.19953 28.351 4.25497 34.1931 9.39747C34.516 9.68125 34.8388 9.97615 35.1639 10.2822C32.8746 12.7883 30.7596 15.4447 28.8347 18.2357C25.4935 18.5173 22.1748 19.0203 18.901 19.7403C18.7098 18.9725 18.5422 18.2202 18.3959 17.4823L18.3959 17.4812ZM32.9635 17.9631C34.3528 16.0813 35.8389 14.2718 37.4173 12.5424C39.0216 14.264 40.5347 16.0679 41.9488 17.9464C40.4638 17.8885 38.9788 17.8607 37.4927 17.8618C35.9829 17.8618 34.4732 17.8963 32.9635 17.9642L32.9635 17.9631ZM54.6713 3.61397C57.0383 4.96274 58.025 10.172 56.6885 17.1618C56.5355 17.9631 56.3532 18.7844 56.1428 19.6279C52.8275 18.9257 49.4671 18.445 46.0865 18.1901C44.1279 15.4047 41.978 12.7561 39.6515 10.2622C40.1094 9.82591 40.5662 9.41083 41.0195 9.01687C43.4698 6.78671 46.3149 5.02284 49.412 3.81206C51.0624 3.02972 52.9659 2.95739 54.6725 3.61286L54.6713 3.61397Z" fill="#818181"/>
</g>
<defs>
<clipPath id="clip0_66_116">
<rect width="66" height="75" fill="white" transform="translate(0 66) rotate(-90)"/>
</clipPath>
</defs>
</svg>
