<svg width="70" height="68" viewBox="0 0 70 68" fill="none" xmlns="http://www.w3.org/2000/svg">
<g clip-path="url(#clip0_66_161)">
<path d="M33.9841 0V6.33459H28.2443V7.99695H33.9841V14.3315H36.0255V7.99695H41.7653V6.33373H36.0255V0H33.9841ZM51.5782 6.50454V15.8386H42.9527V18.4982H51.5782V27.6658H54.6214L54.6415 23.117L54.7115 18.5905L58.9832 18.5215L63.2338 18.4982V15.8395H54.6214V6.50454H51.5782ZM15.3909 6.67017V15.849H6.67608V18.4974H15.3909V27.6762H18.2634V18.4974H27.0464V15.8386H18.2643V6.67103H15.3917L15.3909 6.67017ZM33.1424 21.8247V32.1578H23.5072V35.5739H33.1433V45.9199H36.8812V35.5739H46.5296V32.1578H36.8812V21.8247H33.1424ZM61.5005 26.2804V32.6616H55.6206V34.9994H61.5005V41.5014H64.0887V34.9994H70.0009V32.6616H64.0887V26.2804H61.5005ZM5.75561 26.6513V32.9083H0V34.694H5.75561V41.0088H7.70506V34.694H13.5394V32.9083H7.61231V26.6513H5.75561ZM51.5782 39.6501V49.0083H42.7689V51.6722H51.5782V60.9132H54.7001V51.6722H63.4044V49.0083H54.7001V39.6501H51.5782ZM15.2229 39.6734V49.0075H6.59734V51.6714H15.2229V60.8485H18.434V51.6714H27.0464V49.0075H18.434V39.6621H16.8311L15.2229 39.6734ZM33.6438 52.8377V59.1723H27.9022V61.4946H33.6438V67.9991H36.3562L36.3912 64.7874L36.435 61.4937H42.1906V59.1714H36.3571V52.8368H33.6447L33.6438 52.8377Z" fill="#818181"/>
</g>
<defs>
<clipPath id="clip0_66_161">
<rect width="70" height="68" fill="white"/>
</clipPath>
</defs>
</svg>
