<svg width="48" height="48" viewBox="0 0 48 48" fill="none" xmlns="http://www.w3.org/2000/svg">
<circle cx="24" cy="24" r="23.5" stroke="#CDF70E"/>
<g clip-path="url(#clip0_66_182)">
<path d="M32.7939 14.1847C29.3636 15.5748 14.6584 21.5269 10.5941 23.1494C7.86834 24.1887 9.46458 25.1635 9.46458 25.1635C9.46458 25.1635 11.7918 25.9425 13.7843 26.5278C15.7791 27.1131 16.8425 26.4632 16.8425 26.4632L26.2152 20.2917C29.5376 18.0839 28.7406 19.9022 27.9435 20.6812C26.2152 22.3704 23.3574 25.0323 20.9641 27.1777C19.9007 28.0879 20.4335 28.8669 20.8981 29.2564C22.6264 30.6852 27.3469 33.6096 27.6111 33.8032C29.0158 34.7737 31.7767 36.1724 32.1972 33.2179L33.8595 23.0203C34.3923 19.5773 34.923 16.3947 34.989 15.4845C35.1894 13.2745 32.7961 14.1847 32.7961 14.1847H32.7939Z" fill="#CDF70E"/>
</g>
<defs>
<clipPath id="clip0_66_182">
<rect width="26" height="21" fill="white" transform="translate(9 14)"/>
</clipPath>
</defs>
</svg>
